<svg width="21" height="21" viewBox="0 0 21 21" fill="none" xmlns="http://www.w3.org/2000/svg">
<path d="M10.8311 2.32617C6.26268 2.32617 2.5625 6.02635 2.5625 10.5947C2.56151 12.3304 3.10707 14.0224 4.12179 15.4305C5.13652 16.8387 6.56889 17.8916 8.21571 18.4399C8.62914 18.5119 8.78458 18.2638 8.78458 18.0463C8.78458 17.8504 8.77384 17.1996 8.77384 16.5067C6.69678 16.8896 6.15932 16.0007 5.99395 15.5352C5.90051 15.297 5.49784 14.5636 5.14642 14.3668C4.85702 14.2122 4.4436 13.8294 5.13567 13.8195C5.78724 13.8087 6.25193 14.4189 6.40738 14.667C7.15155 15.9172 8.33974 15.5658 8.81518 15.3491C8.88794 14.8117 9.10458 14.4503 9.34271 14.2436C7.50296 14.0369 5.58052 13.3233 5.58052 10.1606C5.58052 9.261 5.90051 8.51766 6.42805 7.93804C6.34536 7.73132 6.05596 6.8838 6.51073 5.74687C6.51073 5.74687 7.20281 5.53023 8.78458 6.59522C9.4577 6.4084 10.1532 6.31438 10.8517 6.31575C11.5545 6.31575 12.2574 6.40835 12.9189 6.5944C14.5006 5.51949 15.1927 5.7477 15.1927 5.7477C15.6475 6.88462 15.3581 7.73215 15.2754 7.93886C15.8021 8.51766 16.1229 9.25108 16.1229 10.1606C16.1229 13.3341 14.1906 14.0369 12.35 14.2436C12.6501 14.5016 12.9089 14.9977 12.9089 15.7733C12.9089 16.8788 12.8982 17.7677 12.8982 18.0472C12.8982 18.2638 13.0536 18.5218 13.4671 18.4391C15.1082 17.8848 16.5343 16.8298 17.5445 15.4227C18.5548 14.0155 19.0984 12.327 19.0988 10.5947C19.0988 6.02635 15.3986 2.32617 10.8302 2.32617H10.8311Z" fill="#0B0909"/>
</svg>
