<svg width="21" height="21" viewBox="0 0 21 21" fill="none" xmlns="http://www.w3.org/2000/svg">
<rect x="0.359375" y="0.671875" width="19.8445" height="19.8453" rx="8.26855" fill="#F2F7FC"/>
<path d="M5.31914 4.80688C5.31892 5.24547 5.14448 5.66601 4.83419 5.97599C4.52391 6.28596 4.10319 6.45998 3.6646 6.45976C3.22601 6.45954 2.80547 6.2851 2.49549 5.97482C2.18552 5.66453 2.0115 5.24382 2.01172 4.80523C2.01194 4.36664 2.18638 3.9461 2.49666 3.63612C2.80695 3.32614 3.22766 3.15212 3.66626 3.15234C4.10485 3.15256 4.52539 3.327 4.83536 3.63729C5.14534 3.94757 5.31936 4.36829 5.31914 4.80688ZM5.36875 7.68434H2.06133V18.0366H5.36875V7.68434ZM10.5945 7.68434H7.30359V18.0366H10.5614V12.6041C10.5614 9.57783 14.5055 9.2967 14.5055 12.6041V18.0366H17.7716V11.4796C17.7716 6.3779 11.934 6.56808 10.5614 9.07345L10.5945 7.68434Z" fill="#0077B5"/>
</svg>
